# xmcd
#
# Track frame offsets: 
#        150
#        17280
#        31268
#        48105
#        60049
#        77784
#        89672
#        108166
#        121099
#        136676
#        151838
#        170364
#        187453
#        201039
#        216029
#
# Disc length: 3049 seconds
#
# Revision: 0
# Processed by: cddbd v1.5.2PL0 Copyright (c) Steve Scherf et al.
# Submitted via: ExactAudioCopy v0.99pb3
#
DISCID=b20be70f
DTITLE=Mike Denver - The Essential Galway Boy Collection
DYEAR=1900
DGENRE=Country
TTITLE0=The Comfort Of Her Wings
TTITLE1=Messenger Boy
TTITLE2=Inside Out
TTITLE3=The Galway Girl
TTITLE4=You're The Best Friend
TTITLE5=Mary With The Golden Hair
TTITLE6=Seven Spanish Angels
TTITLE7=Back In '68
TTITLE8=(Las Vegas) In The Hills Of Donegal
TTITLE9=Geraldine's Thinking Of Galway
TTITLE10=Don't Close Your Eyes
TTITLE11=Absent Friends
TTITLE12=Sylvia's Mother
TTITLE13=My Darling Kathleen
TTITLE14=(Turn Out The Lights) The Party's Over
EXTD=Submitted By: Peter Gaughan
EXTT0=
EXTT1=
EXTT2=
EXTT3=
EXTT4=
EXTT5=
EXTT6=
EXTT7=
EXTT8=
EXTT9=
EXTT10=
EXTT11=
EXTT12=
EXTT13=
EXTT14=
PLAYORDER=
